                <svg class="img-fluid logo" version="1.0" xmlns="http://www.w3.org/2000/svg"
                     width="544.000000pt" height="459.000000pt" viewBox="0 0 544.000000 459.000000"
                     preserveAspectRatio="xMidYMid meet">

                    <g transform="translate(0.000000,459.000000) scale(0.100000,-0.100000)"
                       fill="#FFFFFF" stroke="none">
                        <path d="M830 4215 c-166 -37 -279 -143 -343 -322 -29 -79 -100 -270 -122
-328 -13 -33 -30 -80 -39 -105 -8 -25 -24 -70 -36 -100 -95 -249 -103 -280
-103 -400 0 -173 56 -303 185 -432 l78 -78 0 -967 c0 -961 0 -967 21 -1010 43
-90 138 -167 241 -197 51 -15 236 -16 2045 -16 2150 0 2024 -3 2122 53 58 34
127 101 154 151 l22 41 3 978 3 979 56 51 c143 131 205 269 204 454 0 99 -4
118 -39 223 -22 63 -44 126 -50 140 -20 47 -80 205 -132 345 -98 265 -109 291
-142 340 -40 60 -96 109 -168 149 -129 70 7 66 -2050 65 -1444 -1 -1867 -4
-1910 -14z m700 -322 c0 -10 -4 -43 -10 -73 -5 -30 -16 -95 -25 -145 -8 -49
-22 -126 -30 -170 -18 -98 -38 -217 -60 -350 -30 -179 -56 -289 -81 -331 -32
-56 -113 -127 -182 -160 -51 -24 -69 -27 -172 -28 -112 -1 -118 0 -185 33
-153 75 -234 219 -206 366 5 28 28 100 50 160 44 118 84 226 136 370 17 50 51
142 74 205 23 63 44 121 46 128 3 9 77 12 325 12 298 0 320 -1 320 -17z m1038
-433 c3 -451 -2 -538 -34 -607 -17 -37 -98 -125 -139 -151 -84 -53 -203 -78
-315 -68 -171 17 -323 158 -323 301 -1 43 30 233 77 485 8 41 21 116 30 165 8
50 22 126 30 170 8 44 17 97 21 118 l6 37 322 -2 322 -3 3 -445z m1030 398 c7
-29 23 -120 37 -203 14 -82 31 -186 39 -230 16 -86 44 -241 72 -397 17 -94 17
-100 0 -155 -25 -78 -96 -148 -201 -198 -78 -37 -83 -38 -200 -39 -110 -1
-125 1 -175 25 -80 38 -154 109 -190 182 l-30 62 0 495 c0 272 0 498 0 503 0
4 143 7 318 7 l319 0 11 -52z m1054 -33 c16 -44 36 -100 44 -125 9 -25 27 -74
41 -110 96 -253 181 -495 194 -552 25 -116 -28 -243 -133 -323 -84 -63 -142
-80 -268 -79 -92 2 -112 5 -165 30 -71 33 -160 119 -192 184 -19 40 -37 126
-74 350 -11 68 -39 228 -64 365 -22 119 -43 244 -50 298 l-6 47 322 -2 322 -3
29 -80z m-3071 -1301 c25 -31 125 -102 185 -132 34 -17 103 -43 153 -57 89
-26 100 -27 284 -22 163 3 202 7 257 26 101 34 201 86 251 129 l45 40 59 -46
c75 -56 177 -104 280 -131 64 -17 109 -21 245 -21 149 0 175 3 255 26 117 34
211 82 291 150 37 31 69 52 73 47 13 -20 151 -112 212 -142 128 -61 218 -81
371 -81 l138 0 -2 -862 -3 -863 -1925 0 -1925 0 0 860 0 860 155 6 c124 5 167
10 215 28 91 33 233 106 300 155 33 25 63 45 66 45 4 1 13 -6 20 -15z" />
                        <path d="M1809 2150 c-108 -10 -222 -45 -304 -93 -44 -26 -142 -107 -179 -148
-102 -114 -156 -220 -183 -359 -15 -79 -15 -101 -4 -179 42 -300 220 -506 515
-598 72 -23 98 -25 236 -25 141 -1 162 2 240 27 132 42 242 106 332 193 l47
46 3 -130 3 -129 203 -3 202 -2 0 220 c0 121 4 220 8 220 7 0 108 -128 287
-362 l59 -78 413 0 413 0 0 525 0 525 155 0 155 0 -2 173 -3 172 -515 0 -515
0 -5 -37 -5 -36 -62 29 c-89 41 -161 49 -495 49 l-298 0 0 -130 c0 -71 -2
-130 -5 -130 -3 0 -32 25 -64 56 -150 143 -262 189 -506 208 -22 2 -79 0 -126
-4z m71 -390 l0 -50 -35 0 c-20 0 -35 5 -35 12 0 16 50 88 61 88 5 0 9 -22 9
-50z m68 10 c32 -47 29 -62 -10 -58 -32 3 -33 5 -36 52 -4 56 10 59 46 6z m56
10 c16 -17 33 -30 38 -30 4 0 8 -7 8 -15 0 -9 -9 -15 -25 -15 -19 0 -29 10
-45 40 -31 61 -23 68 24 20z m-184 16 c0 -3 -9 -21 -21 -40 -15 -25 -28 -36
-45 -36 -34 0 -30 14 13 49 35 29 53 38 53 27z m1294 -10 c52 -22 76 -60 76
-123 0 -66 -19 -104 -64 -132 -30 -19 -47 -21 -118 -19 -46 2 -82 6 -80 11 1
4 2 68 2 142 l0 135 75 0 c42 0 90 -6 109 -14z m566 -478 l-1 -493 -22 26
c-12 15 -33 41 -47 59 -14 18 -30 37 -36 44 -22 23 -244 311 -244 316 0 3 22
20 49 38 153 103 232 269 214 444 l-6 58 47 0 46 0 0 -492z m-1963 447 c-27
-24 -57 -33 -57 -17 0 11 52 41 70 41 10 0 5 -8 -13 -24z m376 6 c19 -12 25
-21 18 -26 -13 -8 -61 20 -61 35 0 15 12 12 43 -9z m-434 -50 c13 -8 12 -15
-4 -51 -10 -22 -22 -43 -26 -45 -8 -6 -69 15 -69 23 0 8 72 82 80 82 3 0 11
-4 19 -9z m527 -28 c19 -20 34 -40 34 -43 0 -8 -46 -30 -60 -30 -5 0 -19 21
-31 46 -17 38 -18 48 -7 55 21 14 29 11 64 -28z m-423 -18 c-5 -72 -10 -78
-55 -71 -56 9 -58 11 -39 48 29 56 32 59 64 56 29 -3 32 -6 30 -33z m336 -1
c30 -51 27 -62 -21 -72 -24 -5 -44 -8 -45 -7 -6 4 -21 100 -17 107 3 5 18 8
34 8 22 0 33 -8 49 -36z m-241 20 c19 -5 22 -13 22 -55 0 -26 -3 -50 -7 -52
-5 -2 -28 -2 -52 1 l-43 4 6 45 c9 66 17 72 74 57z m138 -49 c7 -27 12 -50 11
-51 -1 -1 -24 -4 -52 -5 l-50 -3 -3 51 c-3 55 4 63 57 60 21 -2 27 -10 37 -52z
m-408 -37 l34 -13 -6 -54 c-4 -29 -9 -58 -12 -62 -3 -5 -26 -9 -51 -9 l-46 0
6 48 c5 46 25 102 35 102 3 0 21 -6 40 -12z m659 -10 c10 -20 33 -107 33 -122
0 -3 -22 -6 -49 -6 -55 0 -55 0 -65 80 -6 43 -5 47 21 57 42 16 49 15 60 -9z
m-504 -25 c8 -5 9 -49 1 -80 -6 -20 -13 -23 -61 -23 l-55 0 7 53 c4 28 9 56
12 60 5 8 79 0 96 -10z m401 -20 c3 -21 6 -50 6 -65 0 -26 -3 -28 -42 -28 -61
0 -70 9 -66 66 3 42 6 49 28 55 56 16 67 11 74 -28z m-301 11 c36 -6 37 -8 37
-50 l0 -44 -57 0 -58 0 3 50 c4 54 5 55 75 44z m167 -6 c0 -7 3 -30 6 -50 l7
-38 -62 0 -62 0 3 42 c3 39 6 44 33 49 50 11 75 10 75 -3z m-406 -127 c3 -4 9
-34 12 -66 8 -62 0 -75 -43 -75 -27 0 -51 41 -60 105 l-6 45 46 0 c25 0 48 -4
51 -9z m140 -13 c10 -39 7 -88 -6 -92 -7 -3 -30 -7 -50 -9 l-37 -6 -10 50
c-17 79 -18 79 43 79 47 0 54 -3 60 -22z m134 -30 l-3 -53 -52 -3 -51 -3 -4
56 -3 55 58 0 58 0 -3 -52z m138 21 c-3 -17 -6 -42 -6 -56 0 -23 -3 -24 -52
-21 l-53 3 -3 53 -3 52 62 0 62 0 -7 -31z m133 -1 c-1 -18 -4 -46 -8 -63 -6
-29 -8 -30 -51 -27 -25 2 -48 7 -52 11 -4 3 -5 30 -1 59 l6 52 53 0 54 0 -1
-32z m127 15 c-3 -10 -8 -31 -11 -48 -13 -62 -27 -85 -50 -85 -57 0 -63 13
-44 100 l11 50 50 0 c42 0 49 -2 44 -17z m-396 -163 l0 -50 -40 0 c-37 0 -40
2 -49 38 -17 60 -16 62 39 62 l50 0 0 -50z m116 8 c-9 -54 -15 -60 -57 -56
-33 3 -34 5 -37 51 l-3 47 52 0 52 0 -7 -42z m-242 24 c3 -5 8 -27 12 -49 6
-37 4 -41 -20 -45 -17 -4 -31 1 -44 16 -19 20 -42 59 -42 70 0 12 87 19 94 8z
m364 -7 c5 -4 1 -13 -22 -54 -19 -31 -32 -39 -62 -33 -22 4 -24 8 -18 41 10
64 11 64 56 57 23 -4 44 -9 46 -11z m-460 -46 c12 -22 22 -43 22 -45 0 -14
-59 0 -76 19 -35 38 -37 47 -12 56 38 16 43 13 66 -30z m538 31 l27 -11 -33
-34 c-23 -24 -43 -35 -62 -35 l-28 0 22 45 c23 48 31 51 74 35z m-316 -130 c0
-27 -2 -50 -4 -50 -10 0 -65 84 -60 92 3 4 18 8 35 8 28 0 29 -1 29 -50z m90
42 c0 -13 -50 -82 -60 -82 -6 0 -10 20 -10 45 0 45 0 45 35 45 19 0 35 -3 35
-8z m-167 -33 c10 -18 15 -34 13 -37 -9 -8 -77 49 -71 59 12 19 41 8 58 -22z
m247 22 c0 -11 -80 -64 -87 -57 -12 12 39 66 63 66 13 0 24 -4 24 -9z m-326
-27 c6 -17 1 -18 -25 -3 -11 5 -17 14 -14 19 7 12 32 2 39 -16z m363 0 c-30
-16 -44 -14 -32 5 3 6 18 11 33 11 l27 -1 -28 -15z" />
                    </g>
                </svg>