<?xml version="1.0" encoding="UTF-8"?>
<svg id="Layer_2" data-name="Layer 2" xmlns="http://www.w3.org/2000/svg" viewBox="0 0 1033.61 169.93">
  <defs>
    <style>
      .cls-1 {
        fill: #fff;
        stroke-width: 0px;
      }
    </style>
  </defs>
  <g id="Layer_1-2" data-name="Layer 1">
    <path class="cls-1" d="M0,167.57V2.34h27.14v165.22H0ZM18.64,167.57v-23.61h47.44c8.34,0,14.79-2.59,19.35-7.78,4.56-5.21,6.85-11.18,6.85-17.94,0-4.57-1.03-8.82-3.06-12.75-2.06-3.92-5.04-7.07-8.97-9.43-3.94-2.36-8.66-3.55-14.17-3.55H18.64v-23.59h43.43c7.09,0,12.74-1.81,17-5.44,4.24-3.61,6.37-8.97,6.37-16.06s-2.12-12.43-6.37-16.04c-4.25-3.63-9.91-5.44-17-5.44H18.64V2.34h44.14c11.17,0,20.46,2.06,27.85,6.15,7.39,4.09,12.9,9.35,16.52,15.81,3.62,6.45,5.44,13.39,5.44,20.78,0,8.64-2.4,16.27-7.2,22.88-4.8,6.63-11.84,11.97-21.13,16.06l2.13-8.49c10.38,4.24,18.49,10.22,24.31,17.94,5.82,7.7,8.73,16.75,8.73,27.14,0,8.49-2.08,16.29-6.25,23.36-4.17,7.09-10.3,12.79-18.41,17.11-8.11,4.32-18.06,6.49-29.86,6.49H18.64Z"/>
    <path class="cls-1" d="M249.53,169.93c-11.8,0-22.82-2.21-33.04-6.61-10.24-4.4-19.2-10.51-26.91-18.3-7.71-7.78-13.73-16.83-18.06-27.14-4.33-10.3-6.49-21.36-6.49-33.15s2.16-22.82,6.49-33.04c4.32-10.24,10.3-19.25,17.94-27.02,7.63-7.8,16.52-13.85,26.67-18.19,10.15-4.32,21.12-6.47,32.92-6.47s22.78,2.15,32.92,6.47c10.15,4.34,19.08,10.39,26.79,18.19,7.7,7.78,13.72,16.83,18.06,27.14,4.32,10.3,6.49,21.36,6.49,33.15s-2.17,22.86-6.49,33.17c-4.33,10.3-10.3,19.3-17.94,27.02-7.63,7.7-16.52,13.77-26.67,18.17-10.15,4.4-21.04,6.61-32.69,6.61ZM249.06,143.96c11.17,0,20.96-2.52,29.39-7.55,8.41-5.03,15.02-12,19.82-20.9,4.8-8.87,7.2-19.15,7.2-30.79,0-8.66-1.38-16.56-4.13-23.72-2.76-7.16-6.66-13.37-11.69-18.65-5.03-5.26-10.98-9.32-17.81-12.16-6.85-2.82-14.44-4.24-22.78-4.24-11.02,0-20.73,2.48-29.15,7.43-8.42,4.96-15.03,11.85-19.82,20.65-4.8,8.82-7.2,19.05-7.2,30.69,0,8.66,1.37,16.63,4.13,23.95,2.76,7.32,6.61,13.58,11.56,18.77,4.96,5.19,10.9,9.24,17.82,12.16,6.92,2.92,14.47,4.36,22.66,4.36Z"/>
    <path class="cls-1" d="M444.55,169.93c-12.43,0-23.6-2.84-33.51-8.49-9.92-5.67-17.75-13.43-23.49-23.26-5.74-9.83-8.61-20.96-8.61-33.4V2.34h27.14v102.2c0,8.03,1.69,14.98,5.08,20.9,3.38,5.9,7.98,10.45,13.8,13.68s12.36,4.84,19.59,4.84,13.93-1.61,19.59-4.84c5.67-3.23,10.15-7.78,13.45-13.68,3.3-5.92,4.96-12.79,4.96-20.67V2.34h27.14v102.68c0,12.43-2.83,23.51-8.49,33.27-5.67,9.76-13.38,17.48-23.14,23.14-9.76,5.65-20.93,8.49-33.52,8.49Z"/>
    <path class="cls-1" d="M815,169.93c-11.96,0-23.01-2.17-33.16-6.49s-19-10.39-26.55-18.17c-7.55-7.8-13.38-16.84-17.46-27.14-4.1-10.31-6.14-21.36-6.14-33.17s2.04-22.86,6.14-33.15c4.08-10.31,9.91-19.32,17.46-27.02,7.56-7.72,16.4-13.77,26.55-18.17,10.15-4.42,21.21-6.61,33.16-6.61,13.37,0,24.94,2.19,34.7,6.61,9.75,4.4,18.41,10.37,25.96,17.92l-18.41,18.42c-4.88-5.34-10.82-9.53-17.81-12.5-7.01-3-15.15-4.49-24.43-4.49-8.18,0-15.66,1.42-22.42,4.24-6.76,2.84-12.63,6.9-17.58,12.16-4.96,5.28-8.77,11.52-11.45,18.77-2.67,7.24-4,15.19-4,23.84s1.33,16.61,4,23.84c2.68,7.24,6.49,13.5,11.45,18.77,4.96,5.28,10.82,9.33,17.58,12.16,6.76,2.82,14.24,4.24,22.42,4.24,10.06,0,18.6-1.54,25.6-4.59,7-3.07,12.95-7.28,17.82-12.64l18.41,18.42c-7.56,7.7-16.44,13.77-26.67,18.17-10.23,4.4-21.95,6.61-35.17,6.61Z"/>
    <path class="cls-1" d="M922.45,167.57V2.34h27.14v165.22h-27.14ZM941.09,27.14V2.34h91.34v24.8h-91.34ZM941.09,95.12v-23.86h84.49v23.86h-84.49ZM941.09,167.57v-24.78h92.52v24.78h-92.52Z"/>
    <path class="cls-1" d="M677.45,32.91c-5.74-9.83-13.57-17.59-23.49-23.26-9.91-5.65-21.08-8.49-33.51-8.49s-23.76,2.84-33.52,8.49c-9.76,5.67-17.47,13.39-23.14,23.14-5.66,9.76-8.49,20.84-8.49,33.27v102.68h27.14v-102.43c0-7.88,1.65-14.75,4.96-20.67,3.3-5.9,7.79-10.45,13.45-13.68s12.2-4.84,19.59-4.84,13.77,1.61,19.59,4.84,10.42,7.78,13.8,13.68c3.39,5.92,5.08,12.87,5.08,20.9v88.63c0,7.49,6.08,13.57,13.57,13.57s13.57-6.08,13.57-13.57v-88.86c0-12.45-2.87-23.57-8.61-33.4Z"/>
  </g>
</svg>